Genre: Modern Metal
Country: Sweden
Year: 2011
Record label: Century Media Records
Catalog number: 9977478
Audiocodec: FLAC (*.flac)
Type of rip: image+.cue
Bitrate audio: lossless (~983 kbps)
Duration: 53:56
Releaser: Ilijan (MMT)
Full scans (covers): Yes (600 DPI)

01. Sounds Of A Playground Fading (4:43)
02. Deliver Us (3:31)
03. All For Me (4:31)
04. The Puzzle (4:35)
05. Fear Is The Weakness (4:04)
06. Where The Dead Ships Dwell (4:28)
07. The Attic (3:16)
08. Darker Times (3:25)
09. Ropes (3:42)
10. Enter Tragedy (3:59)
11. Jester's Door (2:37)
12. A New Dawn (5:53)
13. Liberation (5:13)

!!! Use for listening Foobar 2000 !!!

_____________________________________________________________

EAC log:
Exact Audio Copy V0.99 prebeta 4 from 23. January 2008

EAC extraction logfile from 25. June 2011, 10:21

In Flames / Sounds Of A Playground Fading

Used drive  : ATAPI   iHAP122   9   Adapter: 3  ID: 0

Read mode               : Secure
Utilize accurate stream : Yes
Defeat audio cache      : Yes
Make use of C2 pointers : No

Read offset correction                      : 6
Overread into Lead-In and Lead-Out          : No
Fill up missing offset samples with silence : Yes
Delete leading and trailing silent blocks   : No
Null samples used in CRC calculations       : Yes
Used interface                              : Installed external ASPI interface

Used output format              : User Defined Encoder
Selected bitrate                : 40 kBit/s
Quality                         : High
Add ID3 tag                     : No
Command line compressor         : C:\Program Files\Exact Audio Copy\flac.exe
Additional command line options : -6 -V %s

TOC of the extracted CD

     Track |   Start  |  Length  | Start sector | End sector
    ---------------------------------------------------------
        1  |  0:00.00 |  4:42.74 |         0    |    21223
        2  |  4:42.74 |  3:30.68 |     21224    |    37041
        3  |  8:13.67 |  4:31.18 |     37042    |    57384
        4  | 12:45.10 |  4:34.68 |     57385    |    78002
        5  | 17:20.03 |  4:03.49 |     78003    |    96276
        6  | 21:23.52 |  4:27.59 |     96277    |   116360
        7  | 25:51.36 |  3:16.27 |    116361    |   131087
        8  | 29:07.63 |  3:25.06 |    131088    |   146468
        9  | 32:32.69 |  3:42.16 |    146469    |   163134
       10  | 36:15.10 |  3:58.73 |    163135    |   181057
       11  | 40:14.08 |  2:37.01 |    181058    |   192833
       12  | 42:51.09 |  5:53.13 |    192834    |   219321
       13  | 48:44.22 |  5:12.43 |    219322    |   242764

Range status and errors

Selected range

     Filename D:\Download\In Flames - Sounds Of A Playground Fading.wav

     Peak level 100.0 %
     Range quality 100.0 %
     Copy CRC 82E81911
     Copy OK

No errors occurred

AccurateRip summary

Track  1  not present in database
Track  2  not present in database
Track  3  not present in database
Track  4  not present in database
Track  5  not present in database
Track  6  not present in database
Track  7  not present in database
Track  8  not present in database
Track  9  not present in database
Track 10  not present in database
Track 11  not present in database
Track 12  not present in database
Track 13  not present in database

None of the tracks are present in the AccurateRip database

End of status report

_____________________________________________________________

MP3 320 http://thepiratebay.org/torrent/6477320

FLAC (tracks + cue) http://thepiratebay.org/torrent/6481161 or http://thepiratebay.org/torrent/6485141